<?xml version="1.0" encoding="UTF-8" standalone="no"?>
<!-- Created with Inkscape (http://www.inkscape.org/) -->

<svg
   xmlns:svg="http://www.w3.org/2000/svg"
   xmlns="http://www.w3.org/2000/svg"
   version="1.1"
   width="24.6001cm"
   height="12.5cm"
   viewBox="-122.9 -62.650002 246.001 125"
   id="svg2">
  <title
     id="title4">Copy of SDP Pitch 0</title>
  <desc
     id="desc6"> made with tinkercad </desc>
  <defs
     id="defs12" />
  <path
     d="m -105.805,-43.213631 0,86.127262 5.77847,14.090371 200.17906,0 5.85247,-14.270813 0,-85.766377 -5.72903,-13.96981 -200.42594,0 -5.65503,13.789367 z"
     id="path3596"
     style="fill:none;stroke:#000000;stroke-width:0.28222224;stroke-miterlimit:4;stroke-opacity:1;stroke-dasharray:none" />
  <path
     d="m -121.9,61.349998 244.001,0 0,-123 -244.001,0 0,123 z"
     id="path3594"
     style="fill:none;stroke:#000000;stroke-width:0.28222224;stroke-miterlimit:4;stroke-opacity:1;stroke-dasharray:none" />
  <path
     d="m -48.901001,-52.152 39.200001,0 0,104.004001 -39.200001,0 0,-104.004001 z"
     id="path3592"
     style="fill:none;stroke:#000000;stroke-width:0.28222224;stroke-miterlimit:4;stroke-opacity:1;stroke-dasharray:none" />
  <path
     d="m -68.501999,51.852001 0,-104.004001 -24.858704,0 -8.941297,22.1 0,59.804001 8.941297,22.1 24.858704,0 z"
     id="path3590"
     style="fill:none;stroke:#000000;stroke-width:0.28222224;stroke-miterlimit:4;stroke-opacity:1;stroke-dasharray:none" />
  <path
     d="m 102.502,29.752001 0,-59.804001 -9.015328,-22.1 -24.784699,0 0,104.004001 24.784699,0 9.015298,-22.1 3e-5,0 z"
     id="path3588"
     style="fill:none;stroke:#000000;stroke-width:0.28222224;stroke-miterlimit:4;stroke-opacity:1;stroke-dasharray:none" />
  <path
     d="m 9.901,-52.152 39.200002,0 0,104.004001 -39.200002,0 0,-104.004001 z"
     id="path8"
     style="fill:none;stroke:#000000;stroke-width:0.28222224;stroke-miterlimit:4;stroke-opacity:1;stroke-dasharray:none" />
</svg>
